<mxfile host="Electron" agent="Mozilla/5.0 (Macintosh; Intel Mac OS X 10_15_7) AppleWebKit/537.36 (KHTML, like Gecko) draw.io/26.0.4 Chrome/128.0.6613.186 Electron/32.2.5 Safari/537.36" version="26.0.4">
  <diagram name="Страница — 1" id="VoO985jPRH64fFYadprU">
    <mxGraphModel dx="1035" dy="756" grid="1" gridSize="10" guides="1" tooltips="1" connect="1" arrows="1" fold="1" page="1" pageScale="1" pageWidth="827" pageHeight="1169" math="0" shadow="0">
      <root>
        <mxCell id="0" />
        <mxCell id="1" parent="0" />
        <mxCell id="FXwzLCWcbfkPv1vozMQk-4" value="Обработка заявок от соискателей" style="whiteSpace=wrap;html=1;aspect=fixed;" vertex="1" parent="1">
          <mxGeometry x="160" y="420" width="80" height="80" as="geometry" />
        </mxCell>
        <mxCell id="FXwzLCWcbfkPv1vozMQk-10" style="edgeStyle=orthogonalEdgeStyle;rounded=0;orthogonalLoop=1;jettySize=auto;html=1;entryX=0;entryY=0.5;entryDx=0;entryDy=0;fillColor=#dae8fc;strokeColor=#6c8ebf;strokeWidth=2;" edge="1" parent="1" source="FXwzLCWcbfkPv1vozMQk-5" target="FXwzLCWcbfkPv1vozMQk-6">
          <mxGeometry relative="1" as="geometry" />
        </mxCell>
        <mxCell id="FXwzLCWcbfkPv1vozMQk-11" value="task shared data" style="edgeLabel;html=1;align=center;verticalAlign=middle;resizable=0;points=[];" vertex="1" connectable="0" parent="FXwzLCWcbfkPv1vozMQk-10">
          <mxGeometry x="-0.0727" y="-1" relative="1" as="geometry">
            <mxPoint as="offset" />
          </mxGeometry>
        </mxCell>
        <mxCell id="FXwzLCWcbfkPv1vozMQk-12" style="edgeStyle=orthogonalEdgeStyle;rounded=0;orthogonalLoop=1;jettySize=auto;html=1;entryX=0;entryY=0.75;entryDx=0;entryDy=0;strokeColor=#6c8ebf;strokeWidth=2;align=center;verticalAlign=middle;fontFamily=Helvetica;fontSize=11;fontColor=default;labelBackgroundColor=default;endArrow=classic;fillColor=#dae8fc;exitX=0.25;exitY=1;exitDx=0;exitDy=0;" edge="1" parent="1" source="FXwzLCWcbfkPv1vozMQk-5" target="FXwzLCWcbfkPv1vozMQk-8">
          <mxGeometry relative="1" as="geometry">
            <Array as="points">
              <mxPoint x="350" y="720" />
            </Array>
          </mxGeometry>
        </mxCell>
        <mxCell id="FXwzLCWcbfkPv1vozMQk-13" value="task shared data" style="edgeLabel;html=1;align=center;verticalAlign=middle;resizable=0;points=[];rounded=0;strokeColor=#6c8ebf;strokeWidth=2;fontFamily=Helvetica;fontSize=11;fontColor=default;labelBackgroundColor=default;fillColor=#dae8fc;" vertex="1" connectable="0" parent="FXwzLCWcbfkPv1vozMQk-12">
          <mxGeometry x="0.3731" y="1" relative="1" as="geometry">
            <mxPoint x="-80" as="offset" />
          </mxGeometry>
        </mxCell>
        <mxCell id="FXwzLCWcbfkPv1vozMQk-14" style="edgeStyle=orthogonalEdgeStyle;rounded=0;orthogonalLoop=1;jettySize=auto;html=1;entryX=0;entryY=0.25;entryDx=0;entryDy=0;strokeColor=#6c8ebf;strokeWidth=2;align=center;verticalAlign=middle;fontFamily=Helvetica;fontSize=11;fontColor=default;labelBackgroundColor=default;endArrow=classic;fillColor=#dae8fc;exitX=0.25;exitY=0;exitDx=0;exitDy=0;" edge="1" parent="1" source="FXwzLCWcbfkPv1vozMQk-5" target="FXwzLCWcbfkPv1vozMQk-9">
          <mxGeometry relative="1" as="geometry" />
        </mxCell>
        <mxCell id="FXwzLCWcbfkPv1vozMQk-15" value="task shared data" style="edgeLabel;html=1;align=center;verticalAlign=middle;resizable=0;points=[];rounded=0;strokeColor=#6c8ebf;strokeWidth=2;fontFamily=Helvetica;fontSize=11;fontColor=default;labelBackgroundColor=default;fillColor=#dae8fc;" vertex="1" connectable="0" parent="FXwzLCWcbfkPv1vozMQk-14">
          <mxGeometry x="-0.0154" y="-1" relative="1" as="geometry">
            <mxPoint as="offset" />
          </mxGeometry>
        </mxCell>
        <mxCell id="FXwzLCWcbfkPv1vozMQk-16" style="edgeStyle=orthogonalEdgeStyle;rounded=0;orthogonalLoop=1;jettySize=auto;html=1;entryX=0;entryY=0.25;entryDx=0;entryDy=0;strokeWidth=2;fillColor=#f8cecc;strokeColor=#b85450;exitX=1;exitY=0.25;exitDx=0;exitDy=0;" edge="1" parent="1" source="FXwzLCWcbfkPv1vozMQk-5" target="FXwzLCWcbfkPv1vozMQk-6">
          <mxGeometry relative="1" as="geometry">
            <mxPoint x="410" y="380" as="sourcePoint" />
            <Array as="points">
              <mxPoint x="630" y="525" />
              <mxPoint x="630" y="525" />
            </Array>
          </mxGeometry>
        </mxCell>
        <mxCell id="FXwzLCWcbfkPv1vozMQk-17" value="&quot;Для услуги подобран исполнитель&quot; domain event" style="edgeLabel;html=1;align=center;verticalAlign=middle;resizable=0;points=[];" vertex="1" connectable="0" parent="FXwzLCWcbfkPv1vozMQk-16">
          <mxGeometry x="-0.025" y="-1" relative="1" as="geometry">
            <mxPoint as="offset" />
          </mxGeometry>
        </mxCell>
        <mxCell id="FXwzLCWcbfkPv1vozMQk-18" style="edgeStyle=orthogonalEdgeStyle;rounded=0;orthogonalLoop=1;jettySize=auto;html=1;exitX=0.5;exitY=1;exitDx=0;exitDy=0;entryX=0;entryY=0.5;entryDx=0;entryDy=0;strokeColor=#b85450;strokeWidth=2;align=center;verticalAlign=middle;fontFamily=Helvetica;fontSize=11;fontColor=default;labelBackgroundColor=default;endArrow=classic;fillColor=#f8cecc;" edge="1" parent="1" source="FXwzLCWcbfkPv1vozMQk-5" target="FXwzLCWcbfkPv1vozMQk-8">
          <mxGeometry relative="1" as="geometry">
            <Array as="points">
              <mxPoint x="370" y="700" />
            </Array>
          </mxGeometry>
        </mxCell>
        <mxCell id="FXwzLCWcbfkPv1vozMQk-19" value="&quot;Клиент отменил заказ&quot; domain event" style="edgeLabel;html=1;align=center;verticalAlign=middle;resizable=0;points=[];" vertex="1" connectable="0" parent="FXwzLCWcbfkPv1vozMQk-18">
          <mxGeometry x="-0.0174" y="2" relative="1" as="geometry">
            <mxPoint x="20" as="offset" />
          </mxGeometry>
        </mxCell>
        <mxCell id="FXwzLCWcbfkPv1vozMQk-20" style="edgeStyle=orthogonalEdgeStyle;rounded=0;orthogonalLoop=1;jettySize=auto;html=1;exitX=0.75;exitY=1;exitDx=0;exitDy=0;entryX=0;entryY=0.25;entryDx=0;entryDy=0;strokeColor=#b85450;strokeWidth=2;align=center;verticalAlign=middle;fontFamily=Helvetica;fontSize=11;fontColor=default;labelBackgroundColor=default;endArrow=classic;fillColor=#f8cecc;" edge="1" parent="1" source="FXwzLCWcbfkPv1vozMQk-5" target="FXwzLCWcbfkPv1vozMQk-8">
          <mxGeometry relative="1" as="geometry">
            <Array as="points">
              <mxPoint x="390" y="680" />
            </Array>
          </mxGeometry>
        </mxCell>
        <mxCell id="FXwzLCWcbfkPv1vozMQk-21" value="&quot;Исполнитель отменил заказ&quot; domain event" style="edgeLabel;html=1;align=center;verticalAlign=middle;resizable=0;points=[];rounded=0;strokeColor=#b85450;strokeWidth=2;fontFamily=Helvetica;fontSize=11;fontColor=default;labelBackgroundColor=default;fillColor=#f8cecc;" vertex="1" connectable="0" parent="FXwzLCWcbfkPv1vozMQk-20">
          <mxGeometry x="-0.3077" y="1" relative="1" as="geometry">
            <mxPoint x="63" as="offset" />
          </mxGeometry>
        </mxCell>
        <mxCell id="FXwzLCWcbfkPv1vozMQk-22" style="edgeStyle=orthogonalEdgeStyle;rounded=0;orthogonalLoop=1;jettySize=auto;html=1;strokeColor=#b85450;strokeWidth=2;align=center;verticalAlign=middle;fontFamily=Helvetica;fontSize=11;fontColor=default;labelBackgroundColor=default;endArrow=classic;fillColor=#f8cecc;entryX=0;entryY=0.5;entryDx=0;entryDy=0;" edge="1" parent="1" source="FXwzLCWcbfkPv1vozMQk-5" target="FXwzLCWcbfkPv1vozMQk-9">
          <mxGeometry relative="1" as="geometry">
            <mxPoint x="680" y="420" as="targetPoint" />
            <Array as="points">
              <mxPoint x="370" y="390" />
            </Array>
          </mxGeometry>
        </mxCell>
        <mxCell id="FXwzLCWcbfkPv1vozMQk-24" value="&quot;Исполнитель отменил заказ&quot; domain event" style="edgeLabel;html=1;align=center;verticalAlign=middle;resizable=0;points=[];" vertex="1" connectable="0" parent="FXwzLCWcbfkPv1vozMQk-22">
          <mxGeometry x="-0.3288" y="-3" relative="1" as="geometry">
            <mxPoint x="110" y="-4" as="offset" />
          </mxGeometry>
        </mxCell>
        <mxCell id="FXwzLCWcbfkPv1vozMQk-25" style="edgeStyle=orthogonalEdgeStyle;rounded=0;orthogonalLoop=1;jettySize=auto;html=1;exitX=0.75;exitY=0;exitDx=0;exitDy=0;entryX=0;entryY=0.75;entryDx=0;entryDy=0;strokeColor=#b85450;strokeWidth=2;align=center;verticalAlign=middle;fontFamily=Helvetica;fontSize=11;fontColor=default;labelBackgroundColor=default;endArrow=classic;fillColor=#f8cecc;" edge="1" parent="1" source="FXwzLCWcbfkPv1vozMQk-5" target="FXwzLCWcbfkPv1vozMQk-9">
          <mxGeometry relative="1" as="geometry">
            <Array as="points">
              <mxPoint x="390" y="410" />
            </Array>
          </mxGeometry>
        </mxCell>
        <mxCell id="FXwzLCWcbfkPv1vozMQk-26" value="&quot;Клиент отменил заказ&quot; domain event" style="edgeLabel;html=1;align=center;verticalAlign=middle;resizable=0;points=[];rounded=0;strokeColor=#b85450;strokeWidth=2;fontFamily=Helvetica;fontSize=11;fontColor=default;labelBackgroundColor=default;fillColor=#f8cecc;" vertex="1" connectable="0" parent="FXwzLCWcbfkPv1vozMQk-25">
          <mxGeometry x="-0.5525" y="3" relative="1" as="geometry">
            <mxPoint x="150" as="offset" />
          </mxGeometry>
        </mxCell>
        <mxCell id="FXwzLCWcbfkPv1vozMQk-29" style="edgeStyle=orthogonalEdgeStyle;rounded=0;orthogonalLoop=1;jettySize=auto;html=1;exitX=1;exitY=0;exitDx=0;exitDy=0;entryX=0;entryY=1;entryDx=0;entryDy=0;strokeColor=#b85450;strokeWidth=2;align=center;verticalAlign=middle;fontFamily=Helvetica;fontSize=11;fontColor=default;labelBackgroundColor=default;endArrow=classic;fillColor=#f8cecc;" edge="1" parent="1" source="FXwzLCWcbfkPv1vozMQk-5" target="FXwzLCWcbfkPv1vozMQk-9">
          <mxGeometry relative="1" as="geometry">
            <Array as="points">
              <mxPoint x="410" y="430" />
            </Array>
          </mxGeometry>
        </mxCell>
        <mxCell id="FXwzLCWcbfkPv1vozMQk-31" value="&quot;&lt;span style=&quot;background-color: light-dark(#ffffff, var(--ge-dark-color, #121212)); color: light-dark(rgb(0, 0, 0), rgb(255, 255, 255));&quot;&gt;Фотография&amp;nbsp;&lt;/span&gt;&lt;span style=&quot;background-color: light-dark(#ffffff, var(--ge-dark-color, #121212)); color: light-dark(rgb(0, 0, 0), rgb(255, 255, 255));&quot;&gt;подписанного отчёта&amp;nbsp;&lt;/span&gt;&lt;span style=&quot;color: light-dark(rgb(0, 0, 0), rgb(255, 255, 255)); background-color: light-dark(#ffffff, var(--ge-dark-color, #121212));&quot;&gt;отправлена&lt;/span&gt;&lt;span style=&quot;color: light-dark(rgb(0, 0, 0), rgb(255, 255, 255)); background-color: light-dark(#ffffff, var(--ge-dark-color, #121212));&quot;&gt;&amp;nbsp;&quot; domain event&lt;/span&gt;" style="edgeLabel;html=1;align=center;verticalAlign=middle;resizable=0;points=[];" vertex="1" connectable="0" parent="FXwzLCWcbfkPv1vozMQk-29">
          <mxGeometry x="-0.8169" y="-1" relative="1" as="geometry">
            <mxPoint x="176" y="-35" as="offset" />
          </mxGeometry>
        </mxCell>
        <mxCell id="FXwzLCWcbfkPv1vozMQk-5" value="Обработка заказов" style="whiteSpace=wrap;html=1;aspect=fixed;" vertex="1" parent="1">
          <mxGeometry x="330" y="505" width="80" height="80" as="geometry" />
        </mxCell>
        <mxCell id="FXwzLCWcbfkPv1vozMQk-6" value="Расходники" style="whiteSpace=wrap;html=1;aspect=fixed;" vertex="1" parent="1">
          <mxGeometry x="800" y="505" width="80" height="80" as="geometry" />
        </mxCell>
        <mxCell id="FXwzLCWcbfkPv1vozMQk-7" value="Обработка платежей" style="whiteSpace=wrap;html=1;aspect=fixed;" vertex="1" parent="1">
          <mxGeometry x="160" y="630" width="80" height="80" as="geometry" />
        </mxCell>
        <mxCell id="FXwzLCWcbfkPv1vozMQk-8" value="Оценка качества" style="whiteSpace=wrap;html=1;aspect=fixed;" vertex="1" parent="1">
          <mxGeometry x="800" y="660" width="80" height="80" as="geometry" />
        </mxCell>
        <mxCell id="FXwzLCWcbfkPv1vozMQk-9" value="Ставки" style="whiteSpace=wrap;html=1;aspect=fixed;" vertex="1" parent="1">
          <mxGeometry x="800" y="350" width="80" height="80" as="geometry" />
        </mxCell>
      </root>
    </mxGraphModel>
  </diagram>
</mxfile>
